<svg width="190" height="41" viewBox="0 0 190 41" fill="none" xmlns="http://www.w3.org/2000/svg">
<path d="M63.127 30L55.591 13.08H58.927L64.999 27.288H63.991L70.063 13.08H73.279L65.743 30H63.127ZM74.7119 30V17.88H77.7119V30H74.7119ZM74.5439 15.6V12.672H77.8799V15.6H74.5439ZM80.9457 30V20.976C80.9457 20.464 80.9297 19.944 80.8977 19.416C80.8817 18.888 80.8417 18.376 80.7777 17.88H83.6817L84.0177 21.192H83.5377C83.6977 20.392 83.9617 19.728 84.3297 19.2C84.7137 18.672 85.1777 18.28 85.7217 18.024C86.2657 17.768 86.8577 17.64 87.4977 17.64C87.7857 17.64 88.0177 17.656 88.1937 17.688C88.3697 17.704 88.5457 17.744 88.7217 17.808L88.6977 20.448C88.3937 20.32 88.1297 20.24 87.9057 20.208C87.6977 20.176 87.4337 20.16 87.1137 20.16C86.4257 20.16 85.8417 20.304 85.3617 20.592C84.8977 20.88 84.5457 21.28 84.3057 21.792C84.0817 22.304 83.9697 22.888 83.9697 23.544V30H80.9457ZM96.2553 30.24C94.8153 30.24 93.7273 29.864 92.9913 29.112C92.2553 28.36 91.8873 27.232 91.8873 25.728V20.136H89.5593V17.88H91.8873V14.784L94.8873 14.016V17.88H98.1273V20.136H94.8873V25.536C94.8873 26.368 95.0473 26.952 95.3673 27.288C95.6873 27.624 96.1273 27.792 96.6873 27.792C96.9913 27.792 97.2473 27.768 97.4553 27.72C97.6793 27.672 97.8953 27.608 98.1033 27.528V29.904C97.8313 30.016 97.5273 30.096 97.1913 30.144C96.8713 30.208 96.5593 30.24 96.2553 30.24ZM104.533 30.24C103.045 30.24 101.933 29.832 101.197 29.016C100.461 28.2 100.093 26.952 100.093 25.272V17.88H103.093V25.248C103.093 26.144 103.277 26.808 103.645 27.24C104.013 27.656 104.573 27.864 105.325 27.864C106.173 27.864 106.861 27.576 107.389 27C107.933 26.424 108.205 25.664 108.205 24.72V17.88H111.205V30H108.277V27.528H108.613C108.261 28.392 107.725 29.064 107.005 29.544C106.301 30.008 105.477 30.24 104.533 30.24ZM114.702 30V13.08H117.798V20.136H126.462V13.08H129.558V30H126.462V22.704H117.798V30H114.702ZM138.904 30.24C136.872 30.24 135.28 29.68 134.128 28.56C132.976 27.44 132.4 25.904 132.4 23.952C132.4 22.688 132.648 21.584 133.144 20.64C133.64 19.696 134.328 18.96 135.208 18.432C136.104 17.904 137.144 17.64 138.328 17.64C139.496 17.64 140.472 17.888 141.256 18.384C142.04 18.88 142.632 19.576 143.032 20.472C143.448 21.368 143.656 22.416 143.656 23.616V24.408H134.824V22.824H141.52L141.112 23.16C141.112 22.04 140.872 21.184 140.392 20.592C139.928 20 139.248 19.704 138.352 19.704C137.36 19.704 136.592 20.056 136.048 20.76C135.52 21.464 135.256 22.448 135.256 23.712V24.024C135.256 25.336 135.576 26.32 136.216 26.976C136.872 27.616 137.792 27.936 138.976 27.936C139.664 27.936 140.304 27.848 140.896 27.672C141.504 27.48 142.08 27.176 142.624 26.76L143.512 28.776C142.936 29.24 142.248 29.6 141.448 29.856C140.648 30.112 139.8 30.24 138.904 30.24ZM150.876 30.24C149.82 30.24 148.892 29.992 148.092 29.496C147.292 28.984 146.668 28.256 146.22 27.312C145.772 26.368 145.548 25.24 145.548 23.928C145.548 22.616 145.772 21.496 146.22 20.568C146.668 19.624 147.292 18.904 148.092 18.408C148.892 17.896 149.82 17.64 150.876 17.64C151.9 17.64 152.796 17.896 153.564 18.408C154.348 18.904 154.868 19.576 155.124 20.424H154.86L155.124 17.88H158.004C157.956 18.376 157.908 18.88 157.86 19.392C157.828 19.904 157.812 20.408 157.812 20.904V30H154.836L154.812 27.504H155.1C154.844 28.336 154.324 29 153.54 29.496C152.756 29.992 151.868 30.24 150.876 30.24ZM151.716 27.936C152.66 27.936 153.42 27.608 153.996 26.952C154.572 26.28 154.86 25.272 154.86 23.928C154.86 22.584 154.572 21.584 153.996 20.928C153.42 20.272 152.66 19.944 151.716 19.944C150.772 19.944 150.012 20.272 149.436 20.928C148.86 21.584 148.572 22.584 148.572 23.928C148.572 25.272 148.852 26.28 149.412 26.952C149.988 27.608 150.756 27.936 151.716 27.936ZM161.079 30V12.336H164.079V30H161.079ZM172.521 30.24C171.081 30.24 169.993 29.864 169.257 29.112C168.521 28.36 168.153 27.232 168.153 25.728V20.136H165.825V17.88H168.153V14.784L171.153 14.016V17.88H174.393V20.136H171.153V25.536C171.153 26.368 171.313 26.952 171.633 27.288C171.953 27.624 172.393 27.792 172.953 27.792C173.257 27.792 173.513 27.768 173.721 27.72C173.945 27.672 174.161 27.608 174.369 27.528V29.904C174.097 30.016 173.793 30.096 173.457 30.144C173.137 30.208 172.825 30.24 172.521 30.24ZM176.431 30V12.336H179.431V20.304H179.095C179.463 19.44 180.031 18.784 180.799 18.336C181.567 17.872 182.447 17.64 183.439 17.64C184.879 17.64 185.951 18.048 186.655 18.864C187.359 19.664 187.711 20.888 187.711 22.536V30H184.711V22.68C184.711 21.736 184.527 21.056 184.159 20.64C183.807 20.208 183.239 19.992 182.455 19.992C181.543 19.992 180.807 20.28 180.247 20.856C179.703 21.416 179.431 22.168 179.431 23.112V30H176.431Z" fill="#233348"/>
<circle cx="23.283" cy="20.5" r="20.5" fill="#458FF6"/>
<path d="M9.39601 32L4.74043e-06 11.555H6.72801L12.934 26.171H11.107L17.284 11.555H23.751L14.384 32H9.39601ZM24.6398 32V11.555H30.9038V19.095H37.8928V11.555H44.1568V32H37.8928V24.199H30.9038V32H24.6398Z" fill="white"/>
</svg>
